
<svg width="40" height="40" viewBox="0 0 40 40" fill="none" xmlns="http://www.w3.org/2000/svg">
  <circle cx="20" cy="20" r="19" fill="#F8F7FF" stroke="#9b87f5" stroke-width="2" />
  <path d="M20 7C13.3726 7 8 12.3726 8 19C8 25.6274 13.3726 31 20 31C26.6274 31 32 25.6274 32 19C32 12.3726 26.6274 7 20 7ZM20 9C25.5228 9 30 13.4772 30 19C30 24.5228 25.5228 29 20 29C14.4772 29 10 24.5228 10 19C10 13.4772 14.4772 9 20 9Z" fill="#9b87f5"/>
  <path d="M18.5 14.5C17.6716 14.5 17 15.1716 17 16C17 16.8284 17.6716 17.5 18.5 17.5C19.3284 17.5 20 16.8284 20 16C20 15.1716 19.3284 14.5 18.5 14.5Z" fill="#9b87f5"/>
  <path d="M21.5 14.5C20.6716 14.5 20 15.1716 20 16C20 16.8284 20.6716 17.5 21.5 17.5C22.3284 17.5 23 16.8284 23 16C23 15.1716 22.3284 14.5 21.5 14.5Z" fill="#9b87f5"/>
  <path d="M15 22.5C15 19.4624 17.4624 17 20.5 17C23.5376 17 26 19.4624 26 22.5C26 22.7761 25.7761 23 25.5 23H15.5C15.2239 23 15 22.7761 15 22.5Z" fill="#9b87f5"/>
</svg>
